<?xml version="1.0" encoding="UTF-8"?>
<svg width="193px" height="35px" viewBox="0 0 193 35" version="1.1" xmlns="http://www.w3.org/2000/svg" xmlns:xlink="http://www.w3.org/1999/xlink">
    <!-- Generator: sketchtool 56.2 (101010) - https://sketch.com -->
    <title>7AEBC3E1-D99F-4B99-9155-80D3A5BDBF17</title>
    <desc>Created with sketchtool.</desc>
    <g id="checkout" stroke="none" stroke-width="1" fill="none" fill-rule="evenodd">
        <g id="main-select" transform="translate(-146.000000, -15.000000)" fill-rule="nonzero">
            <g id="top-menu" transform="translate(146.000000, 15.000000)">
                <g id="cryptoexch">
                    <polygon id="Path" fill="#FFED8F" points="31 14.2386327 14.1525585 14.2386327 14.1879399 18 0 8.97387939 14.1879399 0 14.1525585 3.78458562 30.0211147 3.78458562 31 3.78458562"></polygon>
                    <polygon id="Path" fill="#331139" points="0 20.7613673 16.8442374 20.7613673 16.8088627 17 31 26.0261206 16.8088627 35 16.8442374 31.2154144 0.984594903 31.2154144 0 31.2154144"></polygon>
                    <g id="Group" transform="translate(36.000000, 7.000000)" fill="#333333">
                        <g transform="translate(0.839838, 0.058918)">
                            <polygon id="Path" points="4.4571377 10.5817261 2.33954738 10.5817261 2.33954738 18.2764557 0.0419918761 18.2764557 0.0419918761 1.14890679 2.33954738 1.14890679 2.33954738 8.70223245 4.13919921 8.70223245 10.2340201 1.14890679 13.0954665 1.14890679 6.43675472 9.45638665 13.5873713 18.2764557 10.7739156 18.2764557"></polygon>
                            <path d="M26.2929133,12.0546835 C26.2929133,13.9930955 25.8430003,15.5544304 24.9371756,16.7386881 C24.0373496,17.9229459 22.8135864,18.5121289 21.2718847,18.5121289 C19.7001887,18.5121289 18.458429,18.023107 17.558603,17.0391715 L17.558603,23.1666743 L15.3450313,23.1666743 L15.3450313,5.54421174 L17.3666402,5.54421174 L17.4746193,6.95825086 C18.3744452,5.86237054 19.6282027,5.30853855 21.2358916,5.30853855 C22.7955899,5.30853855 24.025352,5.88593786 24.9311767,7.04073648 C25.8370015,8.1955351 26.2929133,9.79811277 26.2929133,11.8543613 L26.2929133,12.0546835 L26.2929133,12.0546835 Z M24.0793415,11.8072267 C24.0793415,10.3696203 23.7674019,9.23838895 23.1435226,8.40764097 C22.5196433,7.57689298 21.6678081,7.15857307 20.5820181,7.15857307 C19.2382781,7.15857307 18.2364719,7.74186421 17.5646019,8.91433832 L17.5646019,14.9947066 C18.2244742,16.155397 19.2442769,16.7386881 20.6060135,16.7386881 C21.6678081,16.7386881 22.5136444,16.3262601 23.1375237,15.4955121 C23.7674019,14.6647641 24.0793415,13.4392635 24.0793415,11.8072267 Z" id="Shape"></path>
                            <polygon id="Path" points="37.4927465 5.54421174 39.7063183 5.54421174 39.7063183 18.2705639 37.4927465 18.2705639 37.4927465 8.99093211 31.5179024 18.2705639 29.3043307 18.2705639 29.3043307 5.54421174 31.5179024 5.54421174 31.5179024 14.8356272"></polygon>
                            <polygon id="Path" points="53.8695782 18.2764557 51.6500076 18.2764557 51.6500076 7.34711162 45.6871612 7.34711162 45.6871612 18.2764557 43.4615918 18.2764557 43.4615918 5.55010357 53.8695782 5.55010357"></polygon>
                            <polygon id="Path" points="67.0550273 7.31176064 62.7058687 7.31176064 62.7058687 18.2764557 60.4922969 18.2764557 60.4922969 7.31176064 56.2271221 7.31176064 56.2271221 5.54421174 67.0550273 5.54421174"></polygon>
                            <path d="M68.6207244,11.795443 C68.6207244,10.5463751 68.8726756,9.4269275 69.3705793,8.43120829 C69.868483,7.43548907 70.5643483,6.66955121 71.4521766,6.12750288 C72.3400048,5.58545455 73.3598075,5.31443038 74.499587,5.31443038 C76.2632458,5.31443038 77.6909696,5.91539701 78.7827584,7.11143843 C79.8745472,8.31337169 80.4204415,9.91005754 80.4204415,11.901496 L80.4204415,12.0546835 C80.4204415,13.2919678 80.180488,14.4055236 79.694582,15.3894591 C79.208676,16.3733947 78.5188094,17.1393326 77.6249824,17.6872727 C76.7251565,18.2352129 75.6933561,18.5121289 74.5295812,18.5121289 C72.7719213,18.5121289 71.3501963,17.9111623 70.2584075,16.7151208 C69.1666188,15.5131876 68.6207244,13.9282854 68.6207244,11.9486306 L68.6207244,11.795443 L68.6207244,11.795443 Z M70.8522926,12.0546835 C70.8522926,13.4687227 71.1882276,14.599954 71.8540988,15.4542693 C72.51997,16.3085846 73.4137971,16.7386881 74.5295812,16.7386881 C75.657363,16.7386881 76.5511901,16.3026928 77.2110624,15.4365938 C77.8709348,14.5704948 78.2068698,13.3567779 78.2068698,11.795443 C78.2068698,10.3990794 77.8709348,9.2678481 77.1930659,8.40174914 C76.5211959,7.53565017 75.62137,7.09965478 74.5055859,7.09965478 C73.4137971,7.09965478 72.5319677,7.52975834 71.8600977,8.38407365 C71.1882276,9.23838895 70.8522926,10.4579977 70.8522926,12.0546835 Z" id="Shape"></path>
                            <path d="M96.9592419,10.2635673 C96.9592419,11.9427388 96.6712976,13.4039125 96.095409,14.6588723 C95.5195204,15.9079402 94.7036783,16.8624166 93.6538814,17.5223015 C92.5980856,18.1821864 91.3683235,18.5121289 89.9645951,18.5121289 C88.5908609,18.5121289 87.3730965,18.1821864 86.3113019,17.5164097 C85.2495073,16.8565247 84.4276663,15.9079402 83.83978,14.6824396 C83.2518938,13.456939 82.9519518,12.0311162 82.9339553,10.4167549 L82.9339553,9.17947066 C82.9339553,7.52975834 83.2278984,6.08036824 83.8097858,4.81362486 C84.3916733,3.5527733 85.2195131,2.58651323 86.2813077,1.91484465 C87.3491011,1.24317606 88.5668655,0.907341772 89.9405997,0.907341772 C91.3383293,0.907341772 92.5680914,1.23728423 93.6358848,1.90306099 C94.7036783,2.56294591 95.5195204,3.52920598 96.095409,4.78416571 C96.6712976,6.03912543 96.9592419,7.50619102 96.9592419,9.17947066 L96.9592419,10.2635673 Z M94.6736841,9.15590334 C94.6736841,7.12322209 94.2597641,5.56777906 93.4259255,4.47779056 C92.5980856,3.3936939 91.4343108,2.84575374 89.9405997,2.84575374 C88.4888806,2.84575374 87.3431023,3.38780207 86.5092636,4.47779056 C85.6754249,5.56188723 85.2435085,7.07019563 85.2195131,9.00271577 L85.2195131,10.2635673 C85.2195131,12.2314384 85.6394319,13.7809896 86.4852682,14.9063291 C87.3251057,16.0316686 88.4888806,16.5972842 89.9645951,16.5972842 C91.4523073,16.5972842 92.5980856,16.0670196 93.4139278,15.0005984 C94.2297699,13.940069 94.6496887,12.4140852 94.6736841,10.4285386 L94.6736841,9.15590334 Z" id="Shape"></path>
                            <path d="M105.753541,6.27479862 C107.385225,6.27479862 108.686973,6.81095512 109.664784,7.88326812 C110.642595,8.95558113 111.134499,10.3637284 111.134499,12.1136018 L111.134499,12.3139241 C111.134499,13.5158573 110.900545,14.5881703 110.426636,15.5308631 C109.952728,16.4735558 109.280858,17.2100345 108.399029,17.7285155 C107.517199,18.2528884 106.503395,18.5121289 105.351618,18.5121289 C103.611955,18.5121289 102.208226,17.9406214 101.146432,16.7976064 C100.084637,15.6545915 99.5507405,14.1227158 99.5507405,12.2019793 L99.5507405,11.1414499 C99.5507405,8.46655926 100.054643,6.33960875 101.068447,4.76649022 C102.076252,3.18747986 103.569963,2.22711162 105.543581,1.8853855 C106.659365,1.69095512 107.415219,1.4493901 107.805144,1.16658228 C108.195068,0.883774453 108.39303,0.494913694 108.39303,2.84217094e-14 L110.210678,2.84217094e-14 C110.210678,0.978043728 109.982722,1.74398159 109.532809,2.29192175 C109.082896,2.83986191 108.363036,3.22872267 107.373227,3.45850403 L105.717547,3.82379747 C104.397803,4.13017261 103.413993,4.6427618 102.754121,5.37334868 C102.094248,6.09804373 101.668331,7.0643038 101.46437,8.27212888 C102.640143,6.94057537 104.067867,6.27479862 105.753541,6.27479862 Z M105.321624,8.06591484 C104.235834,8.06591484 103.372001,8.42531646 102.736124,9.14411968 C102.094248,9.8629229 101.77631,10.8586421 101.77631,12.1253855 L101.77631,12.3139241 C101.77631,13.6808285 102.100247,14.7590334 102.742123,15.5544304 C103.383999,16.3498274 104.253831,16.7504718 105.345619,16.7504718 C106.449406,16.7504718 107.319238,16.3498274 107.955115,15.5485386 C108.590992,14.7472497 108.914929,13.5806674 108.914929,12.0428999 C108.914929,10.8409666 108.590992,9.88059839 107.949116,9.15590334 C107.30724,8.42531646 106.431409,8.06591484 105.321624,8.06591484 Z" id="Shape"></path>
                            <polygon id="Path" points="121.086574 15.395351 125.495721 5.55010357 128.261186 5.55010357 128.261186 18.2764557 126.047614 18.2764557 126.047614 9.01449942 121.854426 18.2705639 120.318723 18.2705639 116.04155 8.81417722 116.04155 18.2705639 113.827978 18.2705639 113.827978 5.54421174 116.701422 5.54421174"></polygon>
                            <path d="M137.193458,18.5121289 C135.435798,18.5121289 134.008074,17.9465132 132.904288,16.8093901 C131.800501,15.6781588 131.248608,14.1580667 131.248608,12.2608976 L131.248608,11.8602532 C131.248608,10.5994016 131.494561,9.46817031 131.986465,8.47834292 C132.47837,7.48851554 133.162238,6.71079402 134.044067,6.1510702 C134.925897,5.59134638 135.879712,5.30853855 136.911513,5.30853855 C138.597186,5.30853855 139.904933,5.85647871 140.840752,6.9464672 C141.776571,8.0364557 142.244481,9.59779056 142.244481,11.6304718 L142.244481,12.5378136 L133.46218,12.5378136 C133.492174,13.7927733 133.870101,14.806168 134.583963,15.5779977 C135.297825,16.3498274 136.209648,16.7386881 137.307436,16.7386881 C138.087285,16.7386881 138.753156,16.5796087 139.293052,16.2673418 C139.838946,15.9550748 140.312855,15.5367549 140.720776,15.0182739 L142.076513,16.0552359 C140.996722,17.6931646 139.365038,18.5121289 137.193458,18.5121289 Z M136.917511,7.09965478 C136.023684,7.09965478 135.273829,7.41781358 134.667947,8.06002301 C134.062064,8.70223245 133.684137,9.59779056 133.540165,10.7466974 L140.030909,10.7466974 L140.030909,10.5817261 C139.964922,9.47406214 139.66498,8.61974684 139.119085,8.01288838 C138.57919,7.40602992 137.847332,7.09965478 136.917511,7.09965478 Z" id="Shape"></path>
                            <polygon id="Path" points="155.399936 18.2764557 153.186364 18.2764557 153.186364 12.8441887 147.235515 12.8441887 147.235515 18.2764557 145.009946 18.2764557 145.009946 5.55010357 147.235515 5.55010357 147.235515 11.0648562 153.186364 11.0648562 153.186364 5.55010357 155.399936 5.55010357"></polygon>
                        </g>
                        <g transform="translate(0.839838, 0.000000)">
                            <polygon id="Path" points="4.4571377 10.6347526 2.33954738 10.6347526 2.33954738 18.3294822 0.0419918761 18.3294822 0.0419918761 1.20193326 2.33954738 1.20193326 2.33954738 8.75525892 4.13919921 8.75525892 10.2340201 1.20193326 13.0954665 1.20193326 6.43675472 9.50941312 13.5873713 18.3294822 10.7739156 18.3294822"></polygon>
                            <path d="M26.2929133,12.10771 C26.2929133,14.046122 25.8430003,15.6074568 24.9371756,16.7917146 C24.0373496,17.9759724 22.8135864,18.5651554 21.2718847,18.5651554 C19.7001887,18.5651554 18.458429,18.0761335 17.558603,17.0921979 L17.558603,23.2197008 L15.3450313,23.2197008 L15.3450313,5.60313003 L17.3666402,5.60313003 L17.4746193,7.01716916 C18.3744452,5.92128884 19.6282027,5.36745685 21.2358916,5.36745685 C22.7955899,5.36745685 24.025352,5.94485616 24.9311767,7.09965478 C25.8370015,8.25445339 26.2929133,9.85703107 26.2929133,11.9132796 L26.2929133,12.10771 L26.2929133,12.10771 Z M24.0733427,11.8602532 C24.0733427,10.4226467 23.761403,9.29141542 23.1375237,8.46066743 C22.5136444,7.62991945 21.6618092,7.21159954 20.5760193,7.21159954 C19.2322792,7.21159954 18.2304731,7.79489068 17.558603,8.96736479 L17.558603,15.047733 C18.2184754,16.2084235 19.2382781,16.7917146 20.6000146,16.7917146 C21.6618092,16.7917146 22.5076456,16.3792865 23.1315249,15.5485386 C23.761403,14.7177906 24.0733427,13.49229 24.0733427,11.8602532 Z" id="Shape"></path>
                            <polygon id="Path" points="37.4867477 5.60313003 39.7003194 5.60313003 39.7003194 18.3294822 37.4867477 18.3294822 37.4867477 9.0498504 31.5119036 18.3294822 29.2983318 18.3294822 29.2983318 5.60313003 31.5119036 5.60313003 31.5119036 14.8945455"></polygon>
                            <polygon id="Path" points="53.8635793 18.3294822 51.6500076 18.3294822 51.6500076 7.40013809 45.6871612 7.40013809 45.6871612 18.3294822 43.4615918 18.3294822 43.4615918 5.60313003 53.8695782 5.60313003 53.8695782 18.3294822"></polygon>
                            <polygon id="Path" points="67.0490284 7.36478711 62.6998698 7.36478711 62.6998698 18.3294822 60.4862981 18.3294822 60.4862981 7.36478711 56.2211232 7.36478711 56.2211232 5.5972382 67.0490284 5.5972382"></polygon>
                            <path d="M68.6207244,11.8484695 C68.6207244,10.5994016 68.8726756,9.47995397 69.3705793,8.48423475 C69.868483,7.48851554 70.5643483,6.72257768 71.4521766,6.18052934 C72.3400048,5.63848101 73.3598075,5.36745685 74.499587,5.36745685 C76.2632458,5.36745685 77.6909696,5.96842348 78.7827584,7.1644649 C79.8745472,8.36639816 80.4204415,9.963084 80.4204415,11.9545224 L80.4204415,12.10771 C80.4204415,13.3449942 80.180488,14.4585501 79.694582,15.4424856 C79.208676,16.4264212 78.5188094,17.192359 77.6249824,17.7402992 C76.7251565,18.2882394 75.6933561,18.5651554 74.5295812,18.5651554 C72.7719213,18.5651554 71.3501963,17.9641887 70.2584075,16.7681473 C69.1666188,15.566214 68.6207244,13.9813119 68.6207244,12.0016571 L68.6207244,11.8484695 L68.6207244,11.8484695 Z M70.8462938,12.10771 C70.8462938,13.5217491 71.1822288,14.6529804 71.8481,15.5072957 C72.5139712,16.361611 73.4077982,16.7917146 74.5235824,16.7917146 C75.6513642,16.7917146 76.5451913,16.3557192 77.2050636,15.4896203 C77.8649359,14.6235213 78.200871,13.4098044 78.200871,11.8484695 C78.200871,10.4521059 77.8649359,9.32087457 77.1870671,8.4547756 C76.5151971,7.58867664 75.6153712,7.15268124 74.499587,7.15268124 C73.4077982,7.15268124 72.5259688,7.58278481 71.8540988,8.43710012 C71.1822288,9.29141542 70.8462938,10.516916 70.8462938,12.10771 Z" id="Shape"></path>
                            <path d="M96.9592419,10.3165938 C96.9592419,11.9957652 96.6712976,13.456939 96.095409,14.7118987 C95.5195204,15.9609666 94.7036783,16.915443 93.6538814,17.575328 C92.5980856,18.2352129 91.3683235,18.5651554 89.9645951,18.5651554 C88.5908609,18.5651554 87.3730965,18.2352129 86.3113019,17.5694361 C85.2495073,16.9095512 84.4276663,15.9609666 83.83978,14.7354661 C83.2518938,13.5099655 82.9519518,12.0841427 82.9339553,10.4697814 L82.9339553,9.23249712 C82.9339553,7.58278481 83.2278984,6.13339471 83.8097858,4.86665132 C84.3916733,3.60579977 85.2195131,2.6395397 86.2813077,1.96787112 C87.3491011,1.29620253 88.5668655,0.960368239 89.9405997,0.960368239 C91.3383293,0.960368239 92.5680914,1.2903107 93.6358848,1.95608746 C94.7036783,2.61597238 95.5195204,3.58223245 96.095409,4.83719217 C96.6712976,6.0921519 96.9592419,7.55921749 96.9592419,9.23249712 L96.9592419,10.3165938 Z M94.6736841,9.21482163 C94.6736841,7.18214039 94.2597641,5.62669735 93.4259255,4.53670886 C92.5980856,3.4526122 91.4343108,2.90467204 89.9405997,2.90467204 C88.4888806,2.90467204 87.3431023,3.44672037 86.5092636,4.53670886 C85.6754249,5.62080552 85.2435085,7.12911392 85.2195131,9.06163406 L85.2195131,10.3224856 C85.2195131,12.2903567 85.6394319,13.8399079 86.4852682,14.9652474 C87.3251057,16.0905869 88.4888806,16.6562025 89.9645951,16.6562025 C91.4523073,16.6562025 92.5980856,16.1259379 93.4139278,15.0595167 C94.2297699,13.9989873 94.6496887,12.4730035 94.6736841,10.4874568 L94.6736841,9.21482163 Z" id="Shape"></path>
                            <path d="M105.747542,6.32782509 C107.379226,6.32782509 108.680974,6.86398159 109.658785,7.93629459 C110.636596,9.00860759 111.128501,10.4167549 111.128501,12.1666283 L111.128501,12.3669505 C111.128501,13.5688838 110.894546,14.6411968 110.420638,15.5838895 C109.946729,16.5265823 109.274859,17.263061 108.39303,17.781542 C107.5112,18.3059148 106.497397,18.5651554 105.345619,18.5651554 C103.605956,18.5651554 102.202228,17.9936479 101.140433,16.8506329 C100.078638,15.707618 99.5447417,14.1757422 99.5447417,12.2550058 L99.5447417,11.1944764 C99.5447417,8.51958573 100.048644,6.39263521 101.062448,4.81951669 C102.070253,3.24050633 103.563964,2.28013809 105.537582,1.93841197 C106.653366,1.74398159 107.40922,1.50241657 107.799145,1.21960875 C108.189069,0.936800921 108.387031,0.547940161 108.387031,0.0530264672 L110.204679,0.0530264672 C110.204679,1.0310702 109.976723,1.79700806 109.526811,2.34494822 C109.076898,2.89288838 108.357037,3.28174914 107.367228,3.51153049 L105.711549,3.87682394 C104.391804,4.18319908 103.407994,4.69578826 102.748122,5.42637514 C102.08825,6.1510702 101.662332,7.11733026 101.458371,8.32515535 C102.634144,6.99949367 104.067867,6.32782509 105.747542,6.32782509 Z M105.321624,8.11894131 C104.235834,8.11894131 103.372001,8.47834292 102.736124,9.19714614 C102.094248,9.91594937 101.77631,10.9116686 101.77631,12.178412 L101.77631,12.3669505 C101.77631,13.733855 102.100247,14.8120598 102.742123,15.6074568 C103.383999,16.4028539 104.253831,16.8034983 105.345619,16.8034983 C106.449406,16.8034983 107.319238,16.4028539 107.955115,15.601565 C108.590992,14.8002762 108.914929,13.6336939 108.914929,12.0959264 C108.914929,10.8939931 108.590992,9.93362486 107.949116,9.2089298 C107.30724,8.47834292 106.431409,8.11894131 105.321624,8.11894131 Z" id="Shape"></path>
                            <polygon id="Path" points="121.080575 15.4483774 125.489722 5.60313003 128.255187 5.60313003 128.255187 18.3294822 126.041615 18.3294822 126.041615 9.07341772 121.848427 18.3294822 120.312724 18.3294822 116.035551 8.87309551 116.035551 18.3294822 113.82198 18.3294822 113.82198 5.60313003 116.695424 5.60313003"></polygon>
                            <path d="M137.193458,18.5651554 C135.435798,18.5651554 134.008074,17.9995397 132.904288,16.8624166 C131.800501,15.7311853 131.248608,14.2110932 131.248608,12.3139241 L131.248608,11.9132796 C131.248608,10.6524281 131.494561,9.52119678 131.986465,8.53136939 C132.47837,7.541542 133.162238,6.76382048 134.044067,6.20409666 C134.925897,5.64437284 135.879712,5.36156502 136.911513,5.36156502 C138.597186,5.36156502 139.904933,5.90950518 140.840752,6.99949367 C141.776571,8.08948216 142.244481,9.65081703 142.244481,11.6834983 L142.244481,12.59084 L133.46218,12.59084 C133.492174,13.8457998 133.870101,14.8591945 134.583963,15.6310242 C135.297825,16.4028539 136.209648,16.7917146 137.307436,16.7917146 C138.087285,16.7917146 138.753156,16.6326352 139.293052,16.3203682 C139.838946,16.0081013 140.312855,15.5897814 140.720776,15.0713003 L142.076513,16.1082624 C140.990723,17.746191 139.365038,18.5651554 137.193458,18.5651554 Z M136.917511,7.15268124 C136.023684,7.15268124 135.273829,7.47084005 134.667947,8.11304948 C134.062064,8.75525892 133.684137,9.65081703 133.540165,10.7997238 L140.030909,10.7997238 L140.030909,10.6347526 C139.964922,9.52708861 139.66498,8.6727733 139.119085,8.06591484 C138.57919,7.45905639 137.841333,7.15268124 136.917511,7.15268124 Z" id="Shape"></path>
                            <polygon id="Path" points="155.399936 18.3294822 153.186364 18.3294822 153.186364 12.8972152 147.235515 12.8972152 147.235515 18.3294822 145.009946 18.3294822 145.009946 5.60313003 147.235515 5.60313003 147.235515 11.1178826 153.186364 11.1178826 153.186364 5.60313003 155.399936 5.60313003"></polygon>
                        </g>
                        <g>
                            <polygon id="Path" points="4.41514583 10.6347526 2.29755551 10.6347526 2.29755551 18.3294822 1.13686838e-13 18.3294822 1.13686838e-13 1.20193326 2.29755551 1.20193326 2.29755551 8.75525892 4.09720734 8.75525892 10.1920282 1.20193326 13.0534746 1.20193326 6.39476284 9.50941312 13.5453795 18.3294822 10.7319238 18.3294822"></polygon>
                            <path d="M26.2509214,12.10771 C26.2509214,14.046122 25.8010084,15.6074568 24.8951837,16.7917146 C23.9953578,17.9759724 22.7715945,18.5651554 21.2298928,18.5651554 C19.6581968,18.5651554 18.4164371,18.0761335 17.5166112,17.0921979 L17.5166112,23.2197008 L15.3030394,23.2197008 L15.3030394,5.5972382 L17.3246483,5.5972382 L17.4326274,7.01127733 C18.3324533,5.91539701 19.5862108,5.36156502 21.1938997,5.36156502 C22.753598,5.36156502 23.9833601,5.93896433 24.8891848,7.09376295 C25.7950096,8.24856157 26.2509214,9.85113924 26.2509214,11.9073878 L26.2509214,12.10771 L26.2509214,12.10771 Z M24.0313508,11.8602532 C24.0313508,10.4226467 23.7194112,9.29141542 23.0955318,8.46066743 C22.4716525,7.62991945 21.6198173,7.21159954 20.5340274,7.21159954 C19.1902874,7.21159954 18.1884812,7.79489068 17.5166112,8.96736479 L17.5166112,15.047733 C18.1764835,16.2084235 19.1962862,16.7917146 20.5580228,16.7917146 C21.6198173,16.7917146 22.4656537,16.3792865 23.089533,15.5485386 C23.7194112,14.7177906 24.0313508,13.49229 24.0313508,11.8602532 Z" id="Shape"></path>
                            <polygon id="Path" points="37.4507546 5.5972382 39.6643264 5.5972382 39.6643264 18.3235903 37.4507546 18.3235903 37.4507546 9.04395857 31.4759105 18.3235903 29.2623388 18.3235903 29.2623388 5.5972382 31.4759105 5.5972382 31.4759105 14.8886536"></polygon>
                            <polygon id="Path" points="53.8215875 18.3294822 51.6080157 18.3294822 51.6080157 7.40013809 45.6451693 7.40013809 45.6451693 18.3294822 43.4195999 18.3294822 43.4195999 5.5972382 53.8275863 5.5972382 53.8275863 18.3294822"></polygon>
                            <polygon id="Path" points="67.0070366 7.36478711 62.657878 7.36478711 62.657878 18.3294822 60.4443062 18.3294822 60.4443062 7.36478711 56.1791314 7.36478711 56.1791314 5.5972382 67.0070366 5.5972382"></polygon>
                            <path d="M68.5787325,11.8484695 C68.5787325,10.5994016 68.8306837,9.47995397 69.3285874,8.48423475 C69.8264911,7.48851554 70.5223565,6.72257768 71.4101847,6.18052934 C72.2980129,5.63848101 73.3178156,5.36745685 74.4575951,5.36745685 C76.2212539,5.36745685 77.6489777,5.96842348 78.7407665,7.1644649 C79.8325553,8.36639816 80.3784497,9.963084 80.3784497,11.9545224 L80.3784497,12.10771 C80.3784497,13.3449942 80.1384961,14.4585501 79.6525901,15.4424856 C79.1666841,16.4264212 78.4768176,17.192359 77.5829905,17.7402992 C76.6831646,18.2882394 75.6513642,18.5651554 74.4875893,18.5651554 C72.7299294,18.5651554 71.3082044,17.9641887 70.2164157,16.7681473 C69.1246269,15.566214 68.5787325,13.9813119 68.5787325,12.0016571 L68.5787325,11.8484695 L68.5787325,11.8484695 Z M70.8043019,12.10771 C70.8043019,13.5217491 71.1402369,14.6529804 71.8061081,15.5072957 C72.4719793,16.361611 73.3658064,16.7917146 74.4815905,16.7917146 C75.6093723,16.7917146 76.5031994,16.3557192 77.1630717,15.4896203 C77.8229441,14.6235213 78.1588791,13.4098044 78.1588791,11.8484695 C78.1588791,10.4521059 77.8229441,9.32087457 77.1450752,8.4547756 C76.4732052,7.58867664 75.5733793,7.15268124 74.4575951,7.15268124 C73.3658064,7.15268124 72.483977,7.58278481 71.8121069,8.43710012 C71.1402369,9.29141542 70.8043019,10.5110242 70.8043019,12.10771 Z" id="Shape"></path>
                            <path d="M96.91725,10.3165938 C96.91725,11.9957652 96.6293057,13.456939 96.0534171,14.7118987 C95.4775285,15.9609666 94.6616864,16.915443 93.6118895,17.575328 C92.5560937,18.2352129 91.3263317,18.5651554 89.9226032,18.5651554 C88.548869,18.5651554 87.3311046,18.2352129 86.26931,17.5694361 C85.2075154,16.9095512 84.3856744,15.9609666 83.7977882,14.7354661 C83.2099019,13.5099655 82.9099599,12.0841427 82.8919634,10.4697814 L82.8919634,9.23249712 C82.8919634,7.58278481 83.1859065,6.13339471 83.767794,4.86665132 C84.3496814,3.60579977 85.1775212,2.6395397 86.2393158,1.96787112 C87.3071092,1.29620253 88.5248736,0.960368239 89.8986079,0.960368239 C91.2963375,0.960368239 92.5260995,1.2903107 93.593893,1.95608746 C94.6616864,2.61597238 95.4775285,3.58223245 96.0534171,4.83719217 C96.6293057,6.0921519 96.91725,7.55921749 96.91725,9.23249712 L96.91725,10.3165938 Z M94.6316922,9.2089298 C94.6316922,7.17624856 94.2177723,5.62080552 93.3839336,4.53081703 C92.5560937,3.44672037 91.3923189,2.89878021 89.8986079,2.89878021 C88.4468887,2.89878021 87.3011104,3.44082854 86.4672717,4.53081703 C85.633433,5.61491369 85.2015166,7.12322209 85.1775212,9.05574223 L85.1775212,10.3165938 C85.1775212,12.2844649 85.59744,13.8340161 86.4432763,14.9593556 C87.2831139,16.0846951 88.4468887,16.6503107 89.9226032,16.6503107 C91.4103154,16.6503107 92.5560937,16.120046 93.3719359,15.0536249 C94.1877781,13.9930955 94.6076968,12.4671116 94.6316922,10.481565 L94.6316922,9.2089298 Z" id="Shape"></path>
                            <path d="M105.711549,6.32782509 C107.343233,6.32782509 108.644981,6.86398159 109.622792,7.93629459 C110.600603,9.00860759 111.092508,10.4167549 111.092508,12.1666283 L111.092508,12.3669505 C111.092508,13.5688838 110.858553,14.6411968 110.384645,15.5838895 C109.910736,16.5265823 109.238866,17.263061 108.357037,17.781542 C107.475207,18.3059148 106.461404,18.5651554 105.309626,18.5651554 C103.569963,18.5651554 102.166235,17.9936479 101.10444,16.8506329 C100.042645,15.707618 99.5087486,14.1757422 99.5087486,12.2550058 L99.5087486,11.1944764 C99.5087486,8.51958573 100.012651,6.39263521 101.026455,4.81951669 C102.03426,3.24050633 103.527971,2.28013809 105.501589,1.93841197 C106.617373,1.74398159 107.373227,1.50241657 107.763152,1.21960875 C108.153076,0.936800921 108.351038,0.547940161 108.351038,0.0530264672 L110.168686,0.0530264672 C110.168686,1.0310702 109.94073,1.79700806 109.490817,2.34494822 C109.040905,2.89288838 108.321044,3.28174914 107.331235,3.51153049 L105.675556,3.87682394 C104.355811,4.18319908 103.372001,4.69578826 102.712129,5.42637514 C102.052257,6.1510702 101.626339,7.11733026 101.422378,8.32515535 C102.592152,6.99360184 104.025875,6.32782509 105.711549,6.32782509 Z M105.279632,8.11894131 C104.193842,8.11894131 103.330009,8.47834292 102.694132,9.19714614 C102.052257,9.91594937 101.734318,10.9116686 101.734318,12.178412 L101.734318,12.3669505 C101.734318,13.733855 102.058255,14.8120598 102.700131,15.6074568 C103.342007,16.4028539 104.211839,16.8034983 105.303628,16.8034983 C106.407414,16.8034983 107.277246,16.4028539 107.913123,15.601565 C108.549,14.8002762 108.872937,13.6336939 108.872937,12.0959264 C108.872937,10.8939931 108.549,9.93362486 107.907124,9.2089298 C107.265248,8.47834292 106.389417,8.11894131 105.279632,8.11894131 Z" id="Shape"></path>
                            <polygon id="Path" points="121.038583 15.4483774 125.44773 5.60313003 128.213195 5.60313003 128.213195 18.3294822 125.999624 18.3294822 125.999624 9.06752589 121.806435 18.3235903 120.270732 18.3235903 115.993559 8.86720368 115.993559 18.3235903 113.779988 18.3235903 113.779988 5.5972382 116.653432 5.5972382"></polygon>
                            <path d="M137.151466,18.5651554 C135.393806,18.5651554 133.966082,17.9995397 132.862296,16.8624166 C131.758509,15.7311853 131.206616,14.2110932 131.206616,12.3139241 L131.206616,11.9132796 C131.206616,10.6524281 131.452569,9.52119678 131.944474,8.53136939 C132.436378,7.541542 133.120246,6.76382048 134.002075,6.20409666 C134.883905,5.64437284 135.83772,5.36156502 136.869521,5.36156502 C138.555195,5.36156502 139.862942,5.90950518 140.798761,6.99949367 C141.734579,8.08948216 142.202489,9.65081703 142.202489,11.6834983 L142.202489,12.59084 L133.420188,12.59084 C133.450182,13.8457998 133.828109,14.8591945 134.541971,15.6310242 C135.255833,16.4028539 136.167656,16.7917146 137.265444,16.7917146 C138.045293,16.7917146 138.711164,16.6326352 139.25106,16.3203682 C139.796954,16.0081013 140.270863,15.5897814 140.678784,15.0713003 L142.034521,16.1082624 C140.948732,17.746191 139.323046,18.5651554 137.151466,18.5651554 Z M136.87552,7.15268124 C135.981692,7.15268124 135.231838,7.47084005 134.625955,8.11304948 C134.020072,8.75525892 133.642145,9.65081703 133.498173,10.7997238 L139.988917,10.7997238 L139.988917,10.6347526 C139.92293,9.52708861 139.622988,8.6727733 139.077094,8.06591484 C138.537198,7.45905639 137.799341,7.15268124 136.87552,7.15268124 Z" id="Shape"></path>
                            <polygon id="Path" points="155.357944 18.3294822 153.144372 18.3294822 153.144372 12.8972152 147.193523 12.8972152 147.193523 18.3294822 144.967954 18.3294822 144.967954 5.5972382 147.193523 5.5972382 147.193523 11.1119908 153.144372 11.1119908 153.144372 5.5972382 155.357944 5.5972382"></polygon>
                        </g>
                    </g>
                </g>
            </g>
        </g>
    </g>
</svg>